HIERARCHY
ROOT Hips
{
	OFFSET 0.00000 0.00000 0.00000
	CHANNELS 6 Xposition Yposition Zposition Zrotation Yrotation Xrotation 
	JOINT LHipJoint
	{
		OFFSET 0 0 0
		CHANNELS 3 Zrotation Yrotation Xrotation
		JOINT LeftUpLeg
		{
			OFFSET 1.58895 -1.83665 0.71753
			CHANNELS 3 Zrotation Yrotation Xrotation
			JOINT LeftLeg
			{
				OFFSET 2.50528 -6.88321 0.00000
				CHANNELS 3 Zrotation Yrotation Xrotation
				JOINT LeftFoot
				{
					OFFSET 2.63244 -7.23257 0.00000
					CHANNELS 3 Zrotation Yrotation Xrotation
					JOINT LeftToeBase
					{
						OFFSET 0.23691 -0.65090 1.72750
						CHANNELS 3 Zrotation Yrotation Xrotation
						End Site
						{
							OFFSET 0.00000 -0.00000 0.92561
						}
					}
				}
			}
		}
	}
	JOINT RHipJoint
	{
		OFFSET 0 0 0
		CHANNELS 3 Zrotation Yrotation Xrotation
		JOINT RightUpLeg
		{
			OFFSET -1.51435 -1.83665 0.71753
			CHANNELS 3 Zrotation Yrotation Xrotation
			JOINT RightLeg
			{
				OFFSET -2.54551 -6.99375 0.00000
				CHANNELS 3 Zrotation Yrotation Xrotation
				JOINT RightFoot
				{
					OFFSET -2.66027 -7.30903 0.00000
					CHANNELS 3 Zrotation Yrotation Xrotation
					JOINT RightToeBase
					{
						OFFSET -0.22981 -0.63138 2.03959
						CHANNELS 3 Zrotation Yrotation Xrotation
						End Site
						{
							OFFSET -0.00000 -0.00000 1.07060
						}
					}
				}
			}
		}
	}
	JOINT LowerBack
	{
		OFFSET 0 0 0
		CHANNELS 3 Zrotation Yrotation Xrotation
		JOINT Spine
		{
			OFFSET -0.02651 1.86275 -0.11152
			CHANNELS 3 Zrotation Yrotation Xrotation
			JOINT Spine1
			{
				OFFSET 0.01019 1.86224 0.04087
				CHANNELS 3 Zrotation Yrotation Xrotation
				JOINT Neck
				{
					OFFSET 0 0 0
					CHANNELS 3 Zrotation Yrotation Xrotation
					JOINT Neck1
					{
						OFFSET -0.01926 1.80512 0.08867
						CHANNELS 3 Zrotation Yrotation Xrotation
						JOINT Head
						{
							OFFSET 0.05516 1.76451 -0.38475
							CHANNELS 3 Zrotation Yrotation Xrotation
							End Site
							{
								OFFSET 0.01592 1.82587 -0.14001
							}
						}
					}
				}
				JOINT LeftShoulder
				{
					OFFSET 0 0 0
					CHANNELS 3 Zrotation Yrotation Xrotation
					JOINT LeftArm
					{
						OFFSET 3.47116 1.51376 0.14491
						CHANNELS 3 Zrotation Yrotation Xrotation
						JOINT LeftForeArm
						{
							OFFSET 4.78095 -0.00000 0.00000
							CHANNELS 3 Zrotation Yrotation Xrotation
							JOINT LeftHand
							{
								OFFSET 3.58615 -0.00000 -0.00000
								CHANNELS 3 Zrotation Yrotation Xrotation
								JOINT LeftFingerBase
								{
									OFFSET 0 0 0
									CHANNELS 3 Zrotation Yrotation Xrotation
									JOINT LeftHandIndex1
									{
										OFFSET 0.65981 -0.00000 0.00000
										CHANNELS 3 Zrotation Yrotation Xrotation
										End Site
										{
											OFFSET 0.53196 -0.00000 0.00000
										}
									}
								}
								JOINT LThumb
								{
									OFFSET 0 0 0
									CHANNELS 3 Zrotation Yrotation Xrotation
									End Site
									{
										OFFSET 0.54008 -0.00000 0.54008
									}
								}
							}
						}
					}
				}
				JOINT RightShoulder
				{
					OFFSET 0 0 0
					CHANNELS 3 Zrotation Yrotation Xrotation
					JOINT RightArm
					{
						OFFSET -3.31725 1.61216 0.35156
						CHANNELS 3 Zrotation Yrotation Xrotation
						JOINT RightForeArm
						{
							OFFSET -4.48913 -0.00000 0.00000
							CHANNELS 3 Zrotation Yrotation Xrotation
							JOINT RightHand
							{
								OFFSET -3.70510 -0.00000 0.00000
								CHANNELS 3 Zrotation Yrotation Xrotation
								JOINT RightFingerBase
								{
									OFFSET 0 0 0
									CHANNELS 3 Zrotation Yrotation Xrotation
									JOINT RightHandIndex1
									{
										OFFSET -0.44914 -0.00000 0.00000
										CHANNELS 3 Zrotation Yrotation Xrotation
										End Site
										{
											OFFSET -0.36211 -0.00000 0.00000
										}
									}
								}
								JOINT RThumb
								{
									OFFSET 0 0 0
									CHANNELS 3 Zrotation Yrotation Xrotation
									End Site
									{
										OFFSET -0.36763 -0.00000 0.36763
									}
								}
							}
						}
					}
				}
			}
		}
	}
}
MOTION
Frames: 14
Frame Time: .0083333
-0.5626 18.5573 5.7316 -2.9335 -1.4025 -7.0613 0.0000 0.0000 0.0000 -13.5036 -5.8108 4.2633 1.6493 8.0938 22.9992 1.5475 3.0444 -24.7632 8.7724 -16.6590 -55.2996 0.0000 0.0000 0.0000 17.0590 -1.3291 16.9891 0.0000 -0.0000 0.0000 -1.1674 -5.3172 -22.9722 -0.1074 2.1133 -5.8188 -0.5108 1.4680 3.8236 0.7948 1.9509 0.2938 0.9958 0.9811 -1.8855 -5.7570 -7.5194 -9.1874 6.2299 -12.0422 33.8342 1.6991 -5.2716 13.7548 0.0000 0.0000 0.0000 -91.4959 14.1916 25.4818 28.3810 -39.4647 -10.3650 -0.0000 0.0000 -5.6317 9.8747 -22.9970 -3.8905 -7.1250 0.0000 -0.0000 -11.9314 7.0859 10.6070 0.0000 0.0000 0.0000 84.7865 -18.5071 34.5376 -58.8425 55.9935 -33.3797 0.0000 -0.0000 -12.5064 -24.5875 -52.7983 20.0249 7.1250 -0.0000 -0.0000 62.0312 -80.7526 -53.4761
-0.5656 18.5567 5.7293 -2.8997 -1.2185 -7.1002 0.0000 0.0000 0.0000 -13.5068 -5.7885 4.2234 1.6526 8.1016 23.0230 1.5358 2.9088 -24.6127 8.7858 -16.6679 -55.3463 0.0000 0.0000 0.0000 16.9969 -1.5173 16.9954 0.0000 -0.0000 0.0000 -1.1674 -5.2779 -22.9486 -0.1090 2.1290 -5.8622 -0.5353 1.4766 3.7117 0.8548 1.9622 0.3891 1.0751 0.9863 -1.7283 -5.7201 -7.5187 -9.1493 6.3240 -12.0306 33.3730 1.7321 -5.2604 13.5452 -0.0000 -0.0000 0.0000 -91.3706 13.8667 25.8995 28.4216 -39.5015 -10.3908 -0.0000 0.0000 -5.7774 9.6864 -23.4389 -3.8841 -7.1250 0.0000 -0.0000 -12.0567 6.6701 10.8231 -0.0000 -0.0000 0.0000 84.5479 -18.6075 34.4234 -60.8385 56.5293 -35.0396 0.0000 -0.0000 -15.6348 -23.2565 -53.6685 19.0970 7.1250 -0.0000 -0.0000 67.2536 -80.3840 -57.9933
-0.5685 18.5556 5.7276 -2.8616 -0.8859 -7.1387 0.0000 0.0000 0.0000 -13.5339 -5.8885 4.1835 1.6582 8.1145 23.0623 1.5279 2.7285 -24.4699 8.7820 -16.6654 -55.3333 0.0000 0.0000 0.0000 16.9006 -1.8491 16.9763 0.0000 -0.0000 0.0000 -1.1679 -5.2020 -22.9063 -0.1107 2.1452 -5.9072 -0.5023 1.4506 3.6780 0.8572 1.9287 0.4513 1.0628 0.9689 -1.6438 -5.6504 -7.4728 -9.0758 6.5034 -11.9741 32.7794 1.8008 -5.2195 13.2736 -0.0000 -0.0000 0.0000 -91.1750 13.6364 26.3119 28.5925 -39.6560 -10.4997 -0.0000 0.0000 -6.0440 9.6206 -24.0024 -3.9444 -7.1250 0.0000 -0.0000 -12.1095 6.1225 11.0035 -0.0000 -0.0000 0.0000 84.4057 -18.9874 34.4700 -63.7822 57.2363 -37.5054 0.0000 -0.0000 -18.8279 -22.1440 -54.2389 18.2746 7.1250 -0.0000 -0.0000 70.4623 -80.0178 -60.6540
-0.5725 18.5551 5.7258 -2.8725 -0.5038 -7.1652 0.0000 0.0000 0.0000 -13.5281 -6.0961 4.1475 1.6652 8.1308 23.1120 1.5213 2.5901 -24.3574 8.7874 -16.6689 -55.3518 0.0000 0.0000 0.0000 16.8540 -2.2318 16.9304 0.0000 -0.0000 0.0000 -1.1702 -5.1159 -22.8739 -0.1107 2.1448 -5.9060 -0.3695 1.3916 3.6832 0.8220 1.8546 0.4950 0.9567 0.9306 -1.5948 -5.4653 -7.3706 -8.9885 6.6556 -11.8372 32.0700 1.8511 -5.1369 12.9366 -0.0000 -0.0000 0.0000 -90.9379 13.4871 26.9879 29.3770 -40.3534 -11.0040 -0.0000 0.0000 -6.7777 9.6915 -22.3140 -3.7100 -7.1250 0.0000 -0.0000 -12.0335 7.7773 10.5356 -0.0000 -0.0000 0.0000 84.3745 -19.4873 34.6614 -67.4269 57.9843 -40.5834 0.0000 -0.0000 -21.7252 -20.5171 -54.4207 16.9282 7.1250 -0.0000 -0.0000 71.3176 -79.3889 -60.8115
-0.5764 18.5558 5.7252 -2.9061 -0.1190 -7.1931 0.0000 0.0000 0.0000 -13.4872 -6.2669 4.0961 1.6727 8.1482 23.1651 1.5108 2.4468 -24.2131 8.8121 -16.6853 -55.4379 0.0000 0.0000 0.0000 16.8325 -2.6191 16.8796 0.0000 0.0000 -0.0000 -1.1680 -5.0681 -22.8277 -0.1051 2.0909 -5.7569 -0.2293 1.2889 3.6978 0.8068 1.7228 0.5307 0.8695 0.8637 -1.5591 -5.1826 -7.1798 -8.8200 6.7331 -11.5492 31.1851 1.8805 -4.9930 12.4912 -0.0000 0.0000 0.0000 -90.7684 13.4197 27.3541 30.0745 -40.9572 -11.4584 -0.0000 0.0000 -7.5164 9.9056 -21.5353 -3.6678 -7.1250 0.0000 -0.0000 -11.8891 8.5240 10.2240 -0.0000 0.0000 0.0000 84.3615 -20.0805 34.9791 -71.8188 58.7134 -44.3227 0.0000 -0.0000 -24.2360 -18.8089 -54.3304 15.4669 7.1250 -0.0000 -0.0000 70.8394 -78.6971 -59.6297
-0.5783 18.5563 5.7238 -2.8956 0.2455 -7.2457 0.0000 0.0000 0.0000 -13.4907 -6.3604 4.0498 1.6801 8.1652 23.2171 1.4917 2.3439 -24.0216 8.8529 -16.7121 -55.5801 0.0000 0.0000 0.0000 16.7564 -2.9836 16.8542 0.0000 -0.0000 0.0000 -1.1668 -5.0331 -22.7961 -0.0955 1.9935 -5.4876 -0.1012 1.1746 3.7776 0.7906 1.5754 0.5405 0.7870 0.7894 -1.5872 -4.8075 -6.9080 -8.6025 6.6996 -11.1186 30.2049 1.8731 -4.7923 11.9833 0.0000 0.0000 0.0000 -90.6003 13.5205 27.6677 30.7696 -41.5440 -11.9168 -0.0000 0.0000 -8.3435 10.3544 -21.3533 -3.8062 -7.1250 0.0000 -0.0000 -11.6044 8.6599 9.9363 0.0000 0.0000 0.0000 84.3550 -20.8391 35.4258 -77.1589 59.3677 -48.9029 0.0000 -0.0000 -26.3056 -18.3928 -54.6185 15.1685 7.1250 -0.0000 -0.0000 72.2894 -78.5759 -60.8771
-0.5811 18.5561 5.7208 -2.8768 0.5365 -7.3132 0.0000 0.0000 0.0000 -13.4747 -6.3457 3.9905 1.6859 8.1787 23.2581 1.4692 2.1852 -23.7785 8.8956 -16.7401 -55.7284 0.0000 0.0000 0.0000 16.6865 -3.2790 16.8524 0.0000 -0.0000 0.0000 -1.1750 -4.9646 -22.8249 -0.0807 1.8321 -5.0417 0.0541 1.0777 3.8931 0.7619 1.4525 0.5449 0.6746 0.7270 -1.6409 -4.4021 -6.5794 -8.3533 6.6305 -10.5970 29.1485 1.8586 -4.5538 11.4437 0.0000 -0.0000 0.0000 -90.4420 13.6742 27.8848 31.4535 -42.1072 -12.3729 -0.0000 0.0000 -9.1168 10.6284 -21.2963 -3.8990 -7.1250 0.0000 -0.0000 -11.4308 8.6890 9.7745 0.0000 -0.0000 0.0000 84.3588 -21.5420 36.0050 -83.1175 59.8203 -54.0432 0.0000 -0.0000 -27.9004 -18.7173 -55.2168 15.5507 7.1250 -0.0000 -0.0000 75.3170 -78.7670 -63.9807
-0.5871 18.5552 5.7173 -2.8909 0.7395 -7.3825 0.0000 0.0000 0.0000 -13.4024 -6.2943 3.9542 1.6886 8.1849 23.2772 1.4579 1.9644 -23.5952 8.9081 -16.7482 -55.7717 0.0000 0.0000 0.0000 16.6836 -3.4976 16.8647 0.0000 0.0000 -0.0000 -1.1807 -4.9220 -22.8468 -0.0688 1.6925 -4.6567 0.1719 0.9950 3.9778 0.7820 1.3481 0.5679 0.6334 0.6742 -1.6612 -3.8892 -6.2133 -8.1257 6.3727 -9.9901 28.0798 1.7655 -4.2853 10.8978 0.0000 0.0000 0.0000 -90.4129 13.8035 27.9023 32.0704 -42.6032 -12.7885 -0.0000 0.0000 -9.6880 10.7889 -21.3072 -3.9610 -7.1250 0.0000 -0.0000 -11.3298 8.6622 9.6907 0.0000 0.0000 0.0000 84.2222 -21.8424 36.7163 -88.9023 59.9954 -59.0494 0.0000 -0.0000 -29.1508 -18.5039 -55.4808 15.4161 7.1250 -0.0000 -0.0000 76.6291 -78.7030 -65.1801
-0.5922 18.5550 5.7121 -2.9001 0.7897 -7.4311 0.0000 0.0000 0.0000 -13.3898 -6.3449 4.0047 1.6875 8.1824 23.2695 1.4608 1.9554 -23.6143 8.8955 -16.7400 -55.7282 0.0000 0.0000 0.0000 16.7059 -3.5607 16.8816 0.0000 0.0000 -0.0000 -1.1689 -5.0182 -22.8050 -0.0759 1.7767 -4.8890 0.2652 0.9334 4.0644 0.8415 1.2716 0.5757 0.6448 0.6355 -1.7002 -3.3507 -5.8178 -7.9927 6.0209 -9.3411 27.1698 1.6354 -3.9974 10.4397 0.0000 0.0000 0.0000 -90.4551 13.9731 27.8599 32.6174 -43.0339 -13.1602 -0.0000 0.0000 -10.1648 10.9807 -21.3051 -4.0326 -7.1250 0.0000 -0.0000 -11.2087 8.6450 9.5868 0.0000 0.0000 0.0000 83.8638 -21.5339 37.6416 -93.9158 59.9420 -63.3905 0.0000 -0.0000 -30.5053 -17.7577 -55.5216 14.7884 7.1250 -0.0000 -0.0000 76.7352 -78.4205 -64.9789
-0.5949 18.5563 5.7038 -2.9135 0.5867 -7.4365 0.0000 0.0000 0.0000 -13.4122 -6.4063 4.0934 1.6819 8.1694 23.2299 1.4709 2.1608 -23.7807 8.8760 -16.7273 -55.6603 0.0000 0.0000 0.0000 16.7710 -3.3577 16.8862 0.0000 -0.0000 0.0000 -1.1456 -5.2290 -22.7355 -0.1004 2.0437 -5.6263 0.4312 0.9111 4.1396 0.9077 1.2513 0.5549 0.6193 0.6245 -1.7614 -2.8471 -5.3967 -7.8711 5.6084 -8.6517 26.3696 1.4928 -3.6966 10.0365 0.0000 -0.0000 0.0000 -90.5023 14.1674 27.7529 33.0595 -43.3757 -13.4629 -0.0000 0.0000 -10.5827 11.0934 -21.2063 -4.0569 -7.1250 0.0000 -0.0000 -11.1358 8.7316 9.5024 0.0000 -0.0000 0.0000 83.3112 -20.5246 38.8685 -97.9273 59.7612 -66.8597 0.0000 -0.0000 -32.5025 -18.3609 -54.6089 15.1400 7.1250 -0.0000 -0.0000 72.2424 -78.5621 -60.8177
-0.5983 18.5570 5.6934 -2.8779 0.1989 -7.4371 0.0000 0.0000 0.0000 -13.4569 -6.3122 4.1613 1.6736 8.1502 23.1712 1.4784 2.3878 -23.9385 8.8519 -16.7114 -55.5764 0.0000 0.0000 0.0000 16.8136 -2.9619 16.9104 0.0000 -0.0000 0.0000 -1.1258 -5.4139 -22.6821 -0.1198 2.2313 -6.1454 0.5617 0.9381 4.1858 0.9650 1.2952 0.5233 0.6014 0.6456 -1.8185 -2.2694 -4.9873 -7.6948 4.9979 -7.9557 25.6446 1.2700 -3.4042 9.6516 -0.0000 -0.0000 0.0000 -90.4895 14.2970 27.7002 33.2908 -43.5524 -13.6220 -0.0000 0.0000 -10.9981 11.1460 -21.0894 -4.0552 -7.1250 0.0000 -0.0000 -11.1005 8.8422 9.4461 -0.0000 -0.0000 0.0000 82.6846 -18.9283 40.2524 -101.0238 59.5358 -69.5320 0.0000 -0.0000 -35.0947 -20.3983 -52.4437 16.4253 7.1250 -0.0000 -0.0000 61.1118 -78.8926 -50.7978
-0.6033 18.5563 5.6830 -2.7487 -0.3231 -7.4815 0.0000 0.0000 0.0000 -13.5722 -6.0309 4.2447 1.6632 8.1262 23.0981 1.4853 2.5835 -24.0792 8.8339 -16.6997 -55.5140 0.0000 0.0000 0.0000 16.7766 -2.4367 17.0111 0.0000 0.0000 -0.0000 -1.1137 -5.5446 -22.6607 -0.1254 2.2829 -6.2882 0.5724 1.0171 4.2492 1.0165 1.4029 0.5062 0.6407 0.6993 -1.8733 -1.7000 -4.6117 -7.5807 4.3537 -7.3200 25.1050 1.0278 -3.1363 9.3606 -0.0000 -0.0000 0.0000 -90.4044 14.3757 27.8334 33.3924 -43.6295 -13.6921 -0.0000 0.0000 -11.3808 11.1240 -21.0179 -4.0339 -7.1250 0.0000 -0.0000 -11.1132 8.9154 9.4408 -0.0000 -0.0000 0.0000 82.0960 -16.7731 41.2116 -103.7413 59.2744 -71.8713 0.0000 -0.0000 -36.2655 -18.8388 -54.8418 15.5859 7.1250 -0.0000 -0.0000 73.4208 -78.7783 -62.1720
-0.6203 18.5505 5.6890 -2.8422 0.1440 -7.6436 0.0000 0.0000 0.0000 -13.3503 -6.0491 4.4089 1.6521 8.1003 23.0193 1.4663 2.2193 -23.7706 8.8491 -16.7096 -55.5669 0.0000 0.0000 0.0000 16.8925 -3.0094 17.1599 0.0000 0.0000 -0.0000 -1.1390 -5.3872 -22.7772 -0.1185 2.2196 -6.1130 0.5040 0.7479 4.0662 1.1649 1.0404 0.5999 0.8555 0.5194 -1.6759 -1.1983 -4.2533 -7.5700 3.7453 -6.7248 24.7492 0.8013 -2.8826 9.1701 0.0000 0.0000 0.0000 -90.3979 14.4372 27.8814 33.4694 -43.6878 -13.7453 -0.0000 0.0000 -11.3790 11.0321 -20.9971 -3.9961 -7.1250 0.0000 -0.0000 -11.1709 8.9453 9.4850 0.0000 0.0000 0.0000 81.5053 -14.1253 42.1946 -105.5079 59.0715 -73.3884 0.0000 -0.0000 -37.3985 -17.6301 -55.7779 14.7230 7.1250 -0.0000 -0.0000 77.9822 -78.3856 -66.1522
-0.6261 18.5487 5.6839 -2.9098 0.0053 -7.6726 0.0000 0.0000 0.0000 -13.2467 -6.0468 4.5289 1.6393 8.0706 22.9286 1.4692 2.2771 -23.8181 8.8266 -16.6949 -55.4886 0.0000 0.0000 0.0000 17.0367 -2.9070 17.2124 0.0000 -0.0000 0.0000 -1.1429 -5.3840 -22.8072 -0.1198 2.2313 -6.1454 0.6514 0.6615 3.9019 1.2859 0.9310 0.6360 0.9052 0.4643 -1.5454 -0.7497 -3.9257 -7.5869 3.1969 -6.1915 24.5212 0.5959 -2.6528 9.0435 -0.0000 -0.0000 0.0000 -90.4323 14.4682 27.8152 33.4771 -43.6935 -13.7505 -0.0000 0.0000 -11.0434 10.7927 -21.0066 -3.9093 -7.1250 0.0000 -0.0000 -11.3226 8.9597 9.6158 -0.0000 -0.0000 0.0000 80.9369 -11.0725 43.3374 -106.2693 58.9758 -74.0412 0.0000 -0.0000 -38.1157 -18.3963 -55.0662 15.2514 7.1250 -0.0000 -0.0000 74.5271 -78.6295 -63.0736
